<svg id="Layer_1" data-name="Layer 1" xmlns="http://www.w3.org/2000/svg" viewBox="0 0 63.08 39.53"><defs><style>.cls-1{fill:#fff;}.cls-2{fill:#e0467c;}.cls-3{fill:#5060ab;}.cls-4{fill:#7667a1;}.cls-5{fill:#1cbfd3;}</style></defs><path class="cls-1" d="M14.5,19.64c0-3.18,2.1-5.28,4.64-5.28s4.68,2.1,4.68,5.28v.07c0,3.21-2.15,5.28-4.68,5.28s-4.64-2.1-4.64-5.28ZM14,29.24h.58v-2.5a7.33,7.33,0,0,0,6,2.86c4.54,0,8.71-3.5,8.71-9.89v-.07c0-6.39-4.25-9.89-8.71-9.89a7,7,0,0,0-6,3.11V3.18H9.14V24.39c0,3.63,2.17,4.85,4.85,4.85"/><path class="cls-1" d="M32.21,29.24h5.43V14.75H42V10.32h-4.4V9.57c0-1.43.72-2.07,2-2.07A7,7,0,0,1,42,8V3.47a12,12,0,0,0-3.85-.54,6,6,0,0,0-4.4,1.5,6.36,6.36,0,0,0-1.53,4.64v1.22H30v4.46h2.25Z"/><path class="cls-1" d="M49,18.57c0-2.57,1.32-3.89,3.39-3.89S55.7,16,55.7,18.57V29.24h5.42V16.85c0-4.39-2.39-7.1-6.49-7.1A6.77,6.77,0,0,0,49,12.82V10.11H43.6V29.24H49Z"/><rect class="cls-2" x="1.6" y="15.38" width="0.73" height="0.73"/><rect class="cls-2" x="1.6" y="16.63" width="0.73" height="0.73"/><rect class="cls-2" x="1.6" y="17.88" width="0.73" height="0.73"/><rect class="cls-2" x="1.6" y="19.13" width="0.73" height="0.73"/><rect class="cls-2" x="1.6" y="20.38" width="0.73" height="0.73"/><rect class="cls-2" x="1.6" y="21.63" width="0.73" height="0.73"/><rect class="cls-2" x="1.6" y="22.88" width="0.73" height="0.73"/><rect class="cls-2" x="1.6" y="24.13" width="0.73" height="0.73"/><rect class="cls-3" x="4.78" y="1.3" width="0.73" height="0.73"/><rect class="cls-3" x="4.78" y="2.55" width="0.73" height="0.73"/><rect class="cls-3" x="4.78" y="3.8" width="0.73" height="0.73"/><rect class="cls-3" x="4.78" y="5.06" width="0.73" height="0.73"/><rect class="cls-3" x="4.78" y="6.31" width="0.73" height="0.73"/><path class="cls-4" d="M61.92,32.76a.43.43,0,1,1,0-.85.43.43,0,1,1,0,.85M21.05,34.37H12.86a9,9,0,0,1-8.94-9V13.77H2.34V6.71L4.17,8.63a2.21,2.21,0,0,1,.62,1.54V25.46a8,8,0,0,0,8,8h8.23A1.13,1.13,0,0,0,21,34a1.16,1.16,0,0,0,.08.42m1.08,0h0A.42.42,0,0,1,21.7,34a.43.43,0,0,1,.43-.43.43.43,0,0,1,0,.86M8,34.76a10.55,10.55,0,0,1-4.87-5.31,10.75,10.75,0,0,1-.81-4H1.6a11.29,11.29,0,0,0,2.8,7.44,1.14,1.14,0,0,0-.65.55,12.13,12.13,0,0,1-3-8V14.51H3.2v10.9A9.65,9.65,0,0,0,8.38,34a1.17,1.17,0,0,0-.37.77m1.15.52a.43.43,0,0,1-.42-.43.43.43,0,1,1,.85,0,.43.43,0,0,1-.43.43m-4.38-.89A.44.44,0,1,1,5.22,34a.44.44,0,0,1-.44.44M3.93.73H6.38V25.41a6.5,6.5,0,0,0,6.49,6.5h48a1.18,1.18,0,0,0-.08.43,1.16,1.16,0,0,0,.08.42h-48a7.31,7.31,0,0,1-7.31-7.3V10.17a3,3,0,0,0-.81-2l-.78-.82ZM63.08,32.34A1.15,1.15,0,0,0,62,31.18H12.88A5.77,5.77,0,0,1,7.12,25.4V0H3.2V6.54L1.61,4.87v8.9H0V25.41a12.85,12.85,0,0,0,3.72,9.05,1.18,1.18,0,0,0,1.05.66,1.16,1.16,0,0,0,1.12-.85,11.5,11.5,0,0,0,2.64,1.55,1.11,1.11,0,0,0,.62.19,1.17,1.17,0,0,0,1.17-1.16s0-.06,0-.09a9.44,9.44,0,0,0,2.54.35h9.27A1.16,1.16,0,0,0,23.29,34a1.13,1.13,0,0,0-.09-.45H62a1.17,1.17,0,0,0,1.13-1.16"/><rect class="cls-5" x="3.2" y="8.83" width="0.73" height="0.73"/><rect class="cls-5" x="3.2" y="10.08" width="0.73" height="0.73"/><rect class="cls-5" x="3.2" y="11.33" width="0.73" height="0.73"/><rect class="cls-5" x="3.2" y="12.58" width="0.73" height="0.73"/><polygon class="cls-5" points="9.18 37.24 9.18 39.49 9.69 39.49 9.69 38.62 10.78 38.62 10.78 38.17 9.69 38.17 9.69 37.69 10.93 37.69 10.93 37.24 9.18 37.24"/><path class="cls-5" d="M12.7,38.53a.47.47,0,0,1-.5.54c-.31,0-.5-.19-.5-.56V37.24h-.5v1.29a.9.9,0,0,0,1,1,.92.92,0,0,0,1-1V37.24h-.5Z"/><polygon class="cls-5" points="13.46 37.24 13.46 37.7 14.15 37.7 14.15 39.49 14.66 39.49 14.66 37.7 15.36 37.7 15.36 37.24 13.46 37.24"/><path class="cls-5" d="M17.11,38.53a.47.47,0,0,1-.5.54c-.3,0-.49-.19-.49-.56V37.24h-.51v1.29a.91.91,0,0,0,1,1,.92.92,0,0,0,1-1V37.24h-.51Z"/><path class="cls-5" d="M19.44,38c0,.19-.14.32-.39.32h-.51v-.64H19c.25,0,.4.11.4.32ZM20,38h0a.71.71,0,0,0-.19-.51,1,1,0,0,0-.68-.23H18v2.25h.51v-.72h.4l.49.72H20l-.56-.8A.71.71,0,0,0,20,38"/><polygon class="cls-5" points="20.31 37.24 20.31 39.49 22.06 39.49 22.06 39.05 20.81 39.05 20.81 38.58 21.9 38.58 21.9 38.14 20.81 38.14 20.81 37.68 22.04 37.68 22.04 37.24 20.31 37.24"/><rect class="cls-5" x="22.3" y="38.26" width="1.01" height="0.47"/><path class="cls-5" d="M25,38c0,.2-.15.34-.4.34h-.4v-.68h.39c.25,0,.41.12.41.34Zm-.37-.79h-.94v2.25h.51v-.67h.38c.52,0,.93-.27.93-.8h0a.78.78,0,0,0-.88-.78"/><path class="cls-5" d="M27.15,38c0,.19-.14.32-.38.32h-.52v-.64h.51c.24,0,.39.11.39.32Zm.52,0h0a.68.68,0,0,0-.2-.51.92.92,0,0,0-.67-.23H25.75v2.25h.5v-.72h.4l.49.72h.6l-.57-.8a.71.71,0,0,0,.5-.7"/><path class="cls-5" d="M29.84,38.37a.68.68,0,0,1-.69.7.69.69,0,0,1-.7-.7h0a.68.68,0,0,1,.69-.7.69.69,0,0,1,.7.71Zm-.69-1.17a1.19,1.19,0,0,0-1.23,1.17h0a1.23,1.23,0,0,0,2.45,0h0a1.17,1.17,0,0,0-1.22-1.16"/><path class="cls-5" d="M32.53,38.37a.68.68,0,0,1-.69.7.69.69,0,0,1-.7-.7h0a.68.68,0,0,1,.69-.7.69.69,0,0,1,.7.71Zm-.69-1.17a1.19,1.19,0,0,0-1.23,1.17h0a1.23,1.23,0,0,0,2.45,0h0a1.17,1.17,0,0,0-1.22-1.16"/><polygon class="cls-5" points="33.41 37.24 33.41 39.49 33.91 39.49 33.91 38.62 35.01 38.62 35.01 38.17 33.91 38.17 33.91 37.69 35.16 37.69 35.16 37.24 33.41 37.24"/><path class="cls-5" d="M37.45,39.07a.67.67,0,0,1-.67-.7h0a.67.67,0,0,1,.67-.7.81.81,0,0,1,.58.25l.33-.36a1.21,1.21,0,0,0-.91-.35,1.16,1.16,0,0,0-1.2,1.17h0a1.15,1.15,0,0,0,1.18,1.16,1.2,1.2,0,0,0,.94-.4l-.32-.32a.83.83,0,0,1-.6.26"/><path class="cls-5" d="M40.43,38.37a.7.7,0,1,1-1.39,0h0a.68.68,0,0,1,.69-.7.69.69,0,0,1,.7.71Zm-.7-1.17a1.18,1.18,0,0,0-1.22,1.17h0a1.22,1.22,0,0,0,2.44,0h0a1.17,1.17,0,0,0-1.22-1.16"/><polygon class="cls-5" points="42.85 37.24 42.85 38.63 41.77 37.24 41.3 37.24 41.3 39.49 41.8 39.49 41.8 38.06 42.92 39.49 43.35 39.49 43.35 37.24 42.85 37.24"/><polygon class="cls-5" points="45.34 37.24 45.34 38.63 44.27 37.24 43.8 37.24 43.8 39.49 44.3 39.49 44.3 38.06 45.41 39.49 45.84 39.49 45.84 37.24 45.34 37.24"/><polygon class="cls-5" points="46.3 37.24 46.3 39.49 48.05 39.49 48.05 39.05 46.8 39.05 46.8 38.58 47.88 38.58 47.88 38.14 46.8 38.14 46.8 37.68 48.03 37.68 48.03 37.24 46.3 37.24"/><path class="cls-5" d="M49.49,39.07a.68.68,0,0,1-.67-.7h0a.67.67,0,0,1,.67-.7.85.85,0,0,1,.59.25l.32-.36a1.24,1.24,0,0,0-2.1.82h0a1.15,1.15,0,0,0,1.18,1.16,1.21,1.21,0,0,0,.94-.4l-.32-.32a.85.85,0,0,1-.61.26"/><polygon class="cls-5" points="50.56 37.24 50.56 37.7 51.26 37.7 51.26 39.49 51.77 39.49 51.77 37.7 52.47 37.7 52.47 37.24 50.56 37.24"/><rect class="cls-5" x="52.78" y="37.24" width="0.51" height="2.25"/><polygon class="cls-5" points="55.32 37.24 54.72 38.83 54.12 37.24 53.56 37.24 54.49 39.51 54.94 39.51 55.87 37.24 55.32 37.24"/><rect class="cls-5" x="56.14" y="37.24" width="0.51" height="2.25"/><polygon class="cls-5" points="56.96 37.24 56.96 37.7 57.66 37.7 57.66 39.49 58.17 39.49 58.17 37.7 58.87 37.7 58.87 37.24 56.96 37.24"/><polygon class="cls-5" points="60.62 37.24 60.06 38.14 59.51 37.24 58.92 37.24 59.8 38.6 59.8 39.49 60.31 39.49 60.31 38.59 61.19 37.24 60.62 37.24"/></svg>